<svg id="visual" viewBox="0 0 1440 1080" width="1440" height="1080" xmlns="http://www.w3.org/2000/svg" xmlns:xlink="http://www.w3.org/1999/xlink" version="1.1"><g stroke-width="1" stroke-linejoin="bevel"><path d="M704 521L600 542L683 661Z" fill="#222222" stroke="#222222"></path><path d="M600 542L601 651L683 661Z" fill="#222222" stroke="#222222"></path><path d="M704 521L720 412L600 542Z" fill="#1c1c1c" stroke="#1c1c1c"></path><path d="M683 661L851 575L704 521Z" fill="#171717" stroke="#171717"></path><path d="M704 521L828 443L720 412Z" fill="#1a1a1a" stroke="#1a1a1a"></path><path d="M568 366L471 526L600 542Z" fill="#222222" stroke="#222222"></path><path d="M600 542L471 526L601 651Z" fill="#1f1f1f" stroke="#1f1f1f"></path><path d="M580 815L731 780L683 661Z" fill="#1f1f1f" stroke="#1f1f1f"></path><path d="M683 661L897 677L851 575Z" fill="#2c2c2c" stroke="#2c2c2c"></path><path d="M580 815L683 661L601 651Z" fill="#292929" stroke="#292929"></path><path d="M851 575L828 443L704 521Z" fill="#121212" stroke="#121212"></path><path d="M577 297L568 366L688 270Z" fill="#2c2c2c" stroke="#2c2c2c"></path><path d="M720 412L568 366L600 542Z" fill="#292929" stroke="#292929"></path><path d="M397 702L580 815L601 651Z" fill="#171717" stroke="#171717"></path><path d="M731 780L897 677L683 661Z" fill="#242424" stroke="#242424"></path><path d="M851 575L1032 548L828 443Z" fill="#1a1a1a" stroke="#1a1a1a"></path><path d="M471 526L397 702L601 651Z" fill="#151515" stroke="#151515"></path><path d="M688 270L568 366L720 412Z" fill="#1a1a1a" stroke="#1a1a1a"></path><path d="M568 366L398 397L471 526Z" fill="#1c1c1c" stroke="#1c1c1c"></path><path d="M849 949L889 793L731 780Z" fill="#222222" stroke="#222222"></path><path d="M731 780L889 793L897 677Z" fill="#171717" stroke="#171717"></path><path d="M883 234L688 270L720 412Z" fill="#1a1a1a" stroke="#1a1a1a"></path><path d="M412 308L398 397L568 366Z" fill="#121212" stroke="#121212"></path><path d="M471 526L322 569L397 702Z" fill="#272727" stroke="#272727"></path><path d="M398 397L322 569L471 526Z" fill="#1a1a1a" stroke="#1a1a1a"></path><path d="M889 793L993 702L897 677Z" fill="#171717" stroke="#171717"></path><path d="M897 677L1032 548L851 575Z" fill="#1c1c1c" stroke="#1c1c1c"></path><path d="M397 702L404 841L580 815Z" fill="#1a1a1a" stroke="#1a1a1a"></path><path d="M580 815L758 980L731 780Z" fill="#1c1c1c" stroke="#1c1c1c"></path><path d="M280 828L404 841L397 702Z" fill="#151515" stroke="#151515"></path><path d="M993 702L1032 548L897 677Z" fill="#121212" stroke="#121212"></path><path d="M828 443L883 234L720 412Z" fill="#1f1f1f" stroke="#1f1f1f"></path><path d="M322 569L303 679L397 702Z" fill="#292929" stroke="#292929"></path><path d="M577 297L412 308L568 366Z" fill="#1c1c1c" stroke="#1c1c1c"></path><path d="M398 397L269 373L322 569Z" fill="#1a1a1a" stroke="#1a1a1a"></path><path d="M456 138L412 308L577 297Z" fill="#2c2c2c" stroke="#2c2c2c"></path><path d="M404 841L555 947L580 815Z" fill="#222222" stroke="#222222"></path><path d="M1032 548L1030 426L828 443Z" fill="#1f1f1f" stroke="#1f1f1f"></path><path d="M555 947L758 980L580 815Z" fill="#151515" stroke="#151515"></path><path d="M889 793L1014 847L993 702Z" fill="#242424" stroke="#242424"></path><path d="M758 980L849 949L731 780Z" fill="#1a1a1a" stroke="#1a1a1a"></path><path d="M974 251L883 234L828 443Z" fill="#1c1c1c" stroke="#1c1c1c"></path><path d="M688 270L574 104L577 297Z" fill="#1a1a1a" stroke="#1a1a1a"></path><path d="M404 841L462 959L555 947Z" fill="#242424" stroke="#242424"></path><path d="M555 947L744 1080L758 980Z" fill="#2c2c2c" stroke="#2c2c2c"></path><path d="M280 953L462 959L404 841Z" fill="#1f1f1f" stroke="#1f1f1f"></path><path d="M1017 911L1014 847L889 793Z" fill="#121212" stroke="#121212"></path><path d="M1186 678L1181 531L1032 548Z" fill="#242424" stroke="#242424"></path><path d="M883 234L728 150L688 270Z" fill="#171717" stroke="#171717"></path><path d="M412 308L269 373L398 397Z" fill="#222222" stroke="#222222"></path><path d="M322 569L113 527L303 679Z" fill="#292929" stroke="#292929"></path><path d="M292 260L269 373L412 308Z" fill="#2c2c2c" stroke="#2c2c2c"></path><path d="M133 781L280 828L303 679Z" fill="#1c1c1c" stroke="#1c1c1c"></path><path d="M303 679L280 828L397 702Z" fill="#151515" stroke="#151515"></path><path d="M1030 426L974 251L828 443Z" fill="#121212" stroke="#121212"></path><path d="M883 234L878 126L728 150Z" fill="#1f1f1f" stroke="#1f1f1f"></path><path d="M1009 1080L1017 911L849 949Z" fill="#222222" stroke="#222222"></path><path d="M849 949L1017 911L889 793Z" fill="#121212" stroke="#121212"></path><path d="M1186 678L1032 548L993 702Z" fill="#151515" stroke="#151515"></path><path d="M728 150L574 104L688 270Z" fill="#121212" stroke="#121212"></path><path d="M574 104L456 138L577 297Z" fill="#242424" stroke="#242424"></path><path d="M293 172L292 260L412 308Z" fill="#1f1f1f" stroke="#1f1f1f"></path><path d="M542 1080L744 1080L555 947Z" fill="#1f1f1f" stroke="#1f1f1f"></path><path d="M758 980L859 1080L849 949Z" fill="#2c2c2c" stroke="#2c2c2c"></path><path d="M987 146L878 126L883 234Z" fill="#1f1f1f" stroke="#1f1f1f"></path><path d="M728 150L684 0L574 104Z" fill="#1a1a1a" stroke="#1a1a1a"></path><path d="M462 959L542 1080L555 947Z" fill="#1c1c1c" stroke="#1c1c1c"></path><path d="M462 1080L542 1080L462 959Z" fill="#292929" stroke="#292929"></path><path d="M1032 548L1163 439L1030 426Z" fill="#1a1a1a" stroke="#1a1a1a"></path><path d="M1030 426L1141 286L974 251Z" fill="#1f1f1f" stroke="#1f1f1f"></path><path d="M1186 678L993 702L1178 824Z" fill="#1a1a1a" stroke="#1a1a1a"></path><path d="M1181 531L1163 439L1032 548Z" fill="#272727" stroke="#272727"></path><path d="M974 251L987 146L883 234Z" fill="#272727" stroke="#272727"></path><path d="M140 906L280 953L280 828Z" fill="#151515" stroke="#151515"></path><path d="M280 828L280 953L404 841Z" fill="#171717" stroke="#171717"></path><path d="M1178 824L993 702L1014 847Z" fill="#121212" stroke="#121212"></path><path d="M744 1080L859 1080L758 980Z" fill="#2c2c2c" stroke="#2c2c2c"></path><path d="M313 1080L462 1080L462 959Z" fill="#1a1a1a" stroke="#1a1a1a"></path><path d="M110 289L147 426L269 373Z" fill="#1a1a1a" stroke="#1a1a1a"></path><path d="M269 373L147 426L322 569Z" fill="#121212" stroke="#121212"></path><path d="M1141 286L987 146L974 251Z" fill="#292929" stroke="#292929"></path><path d="M147 426L113 527L322 569Z" fill="#1f1f1f" stroke="#1f1f1f"></path><path d="M456 138L293 172L412 308Z" fill="#1f1f1f" stroke="#1f1f1f"></path><path d="M292 260L110 289L269 373Z" fill="#121212" stroke="#121212"></path><path d="M312 0L293 172L456 138Z" fill="#292929" stroke="#292929"></path><path d="M1288 419L1141 286L1163 439Z" fill="#1f1f1f" stroke="#1f1f1f"></path><path d="M1163 439L1141 286L1030 426Z" fill="#292929" stroke="#292929"></path><path d="M108 692L133 781L303 679Z" fill="#1a1a1a" stroke="#1a1a1a"></path><path d="M113 527L108 692L303 679Z" fill="#292929" stroke="#292929"></path><path d="M1017 911L1178 824L1014 847Z" fill="#222222" stroke="#222222"></path><path d="M1143 980L1178 824L1017 911Z" fill="#1c1c1c" stroke="#1c1c1c"></path><path d="M852 0L684 0L728 150Z" fill="#242424" stroke="#242424"></path><path d="M574 104L469 0L456 138Z" fill="#171717" stroke="#171717"></path><path d="M852 0L728 150L878 126Z" fill="#171717" stroke="#171717"></path><path d="M684 0L578 0L574 104Z" fill="#222222" stroke="#222222"></path><path d="M1186 678L1264 566L1181 531Z" fill="#171717" stroke="#171717"></path><path d="M1181 531L1288 419L1163 439Z" fill="#222222" stroke="#222222"></path><path d="M1320 667L1264 566L1186 678Z" fill="#242424" stroke="#242424"></path><path d="M859 1080L1009 1080L849 949Z" fill="#292929" stroke="#292929"></path><path d="M105 1080L313 1080L280 953Z" fill="#2c2c2c" stroke="#2c2c2c"></path><path d="M280 953L313 1080L462 959Z" fill="#171717" stroke="#171717"></path><path d="M0 783L140 906L133 781Z" fill="#292929" stroke="#292929"></path><path d="M133 781L140 906L280 828Z" fill="#292929" stroke="#292929"></path><path d="M1043 0L878 126L987 146Z" fill="#242424" stroke="#242424"></path><path d="M1043 0L852 0L878 126Z" fill="#1f1f1f" stroke="#1f1f1f"></path><path d="M578 0L469 0L574 104Z" fill="#2c2c2c" stroke="#2c2c2c"></path><path d="M1009 1080L1143 980L1017 911Z" fill="#1c1c1c" stroke="#1c1c1c"></path><path d="M1322 790L1320 667L1186 678Z" fill="#222222" stroke="#222222"></path><path d="M0 433L0 537L113 527Z" fill="#272727" stroke="#272727"></path><path d="M113 527L0 653L108 692Z" fill="#272727" stroke="#272727"></path><path d="M181 113L110 289L292 260Z" fill="#222222" stroke="#222222"></path><path d="M181 113L292 260L293 172Z" fill="#2c2c2c" stroke="#2c2c2c"></path><path d="M1264 566L1288 419L1181 531Z" fill="#1c1c1c" stroke="#1c1c1c"></path><path d="M1141 286L1181 129L987 146Z" fill="#151515" stroke="#151515"></path><path d="M1322 790L1186 678L1178 824Z" fill="#1c1c1c" stroke="#1c1c1c"></path><path d="M1264 566L1440 554L1288 419Z" fill="#1f1f1f" stroke="#1f1f1f"></path><path d="M0 433L113 527L147 426Z" fill="#292929" stroke="#292929"></path><path d="M108 692L0 783L133 781Z" fill="#242424" stroke="#242424"></path><path d="M0 537L0 653L113 527Z" fill="#242424" stroke="#242424"></path><path d="M312 0L181 113L293 172Z" fill="#1c1c1c" stroke="#1c1c1c"></path><path d="M110 289L0 433L147 426Z" fill="#242424" stroke="#242424"></path><path d="M1009 1080L1127 1080L1143 980Z" fill="#292929" stroke="#292929"></path><path d="M1296 908L1322 790L1178 824Z" fill="#151515" stroke="#151515"></path><path d="M0 306L0 433L110 289Z" fill="#242424" stroke="#242424"></path><path d="M469 0L312 0L456 138Z" fill="#121212" stroke="#121212"></path><path d="M1296 908L1178 824L1143 980Z" fill="#1a1a1a" stroke="#1a1a1a"></path><path d="M1295 145L1181 129L1141 286Z" fill="#272727" stroke="#272727"></path><path d="M0 653L0 783L108 692Z" fill="#121212" stroke="#121212"></path><path d="M140 906L105 1080L280 953Z" fill="#1a1a1a" stroke="#1a1a1a"></path><path d="M1181 129L1043 0L987 146Z" fill="#151515" stroke="#151515"></path><path d="M1262 1080L1296 908L1143 980Z" fill="#272727" stroke="#272727"></path><path d="M1440 396L1320 293L1288 419Z" fill="#121212" stroke="#121212"></path><path d="M1288 419L1320 293L1141 286Z" fill="#292929" stroke="#292929"></path><path d="M1440 554L1264 566L1320 667Z" fill="#121212" stroke="#121212"></path><path d="M0 110L0 306L110 289Z" fill="#2c2c2c" stroke="#2c2c2c"></path><path d="M0 783L0 922L140 906Z" fill="#151515" stroke="#151515"></path><path d="M1327 0L1122 0L1181 129Z" fill="#272727" stroke="#272727"></path><path d="M1181 129L1122 0L1043 0Z" fill="#242424" stroke="#242424"></path><path d="M0 922L105 1080L140 906Z" fill="#151515" stroke="#151515"></path><path d="M1320 293L1295 145L1141 286Z" fill="#121212" stroke="#121212"></path><path d="M1127 1080L1262 1080L1143 980Z" fill="#222222" stroke="#222222"></path><path d="M1440 689L1320 667L1322 790Z" fill="#151515" stroke="#151515"></path><path d="M1440 689L1440 554L1320 667Z" fill="#121212" stroke="#121212"></path><path d="M1320 293L1440 233L1295 145Z" fill="#242424" stroke="#242424"></path><path d="M1440 689L1322 790L1440 805Z" fill="#151515" stroke="#151515"></path><path d="M1440 805L1322 790L1296 908Z" fill="#272727" stroke="#272727"></path><path d="M312 0L125 0L181 113Z" fill="#1c1c1c" stroke="#1c1c1c"></path><path d="M181 113L0 110L110 289Z" fill="#272727" stroke="#272727"></path><path d="M1440 554L1440 396L1288 419Z" fill="#171717" stroke="#171717"></path><path d="M1440 940L1440 805L1296 908Z" fill="#292929" stroke="#292929"></path><path d="M125 0L0 110L181 113Z" fill="#272727" stroke="#272727"></path><path d="M0 922L0 1080L105 1080Z" fill="#1f1f1f" stroke="#1f1f1f"></path><path d="M1440 396L1440 233L1320 293Z" fill="#1c1c1c" stroke="#1c1c1c"></path><path d="M1295 145L1327 0L1181 129Z" fill="#292929" stroke="#292929"></path><path d="M1262 1080L1440 940L1296 908Z" fill="#171717" stroke="#171717"></path><path d="M125 0L0 0L0 110Z" fill="#171717" stroke="#171717"></path><path d="M1440 146L1327 0L1295 145Z" fill="#1f1f1f" stroke="#1f1f1f"></path><path d="M1440 233L1440 146L1295 145Z" fill="#292929" stroke="#292929"></path><path d="M1262 1080L1440 1080L1440 940Z" fill="#222222" stroke="#222222"></path><path d="M1440 146L1440 0L1327 0Z" fill="#151515" stroke="#151515"></path></g></svg>